<svg width="207" height="333" viewBox="0 0 207 333" fill="none" xmlns="http://www.w3.org/2000/svg">
<path d="M204.751 332.55C196.351 331.35 186.751 330.75 175.951 330.75L154.351 331.2C150.151 331.5 144.151 331.65 136.351 331.65C136.051 329.55 135.901 326.4 135.901 322.2L127.351 322.65C126.451 306.45 126.001 279.6 126.001 242.1L125.101 186.75C124.201 189.15 122.401 193.95 119.701 201.15C117.301 208.35 114.901 213.75 112.501 217.35C110.101 220.65 107.851 222.3 105.751 222.3C103.351 222.3 100.351 219.3 96.7508 213.3C92.2508 213 86.8508 205.35 80.5508 190.35C80.2508 197.55 80.1008 208.05 80.1008 221.85C80.1008 248.25 81.6008 284.25 84.6008 329.85C72.9008 331.65 60.4508 332.55 47.2508 332.55L32.8508 333C25.6508 333 19.9508 332.25 15.7508 330.75C11.8508 329.55 9.90078 326.85 9.90078 322.65H7.65078C5.25078 322.65 3.15078 320.85 1.35078 317.25C0.750782 315.45 0.300782 308.4 0.00078186 296.1C0.00078186 283.5 0.00078186 266.1 0.00078186 243.9C0.00078186 162.6 0.450782 83.3999 1.35078 6.29989C9.45078 3.59989 18.6008 2.24989 28.8008 2.24989C34.5008 2.24989 38.8508 2.39989 41.8508 2.69989L56.2508 3.14988C61.6508 3.14988 66.0008 2.99988 69.3008 2.69989L75.6008 12.1499L78.3008 11.6999C84.0008 18.2999 90.3008 31.7999 97.2008 52.1999L101.251 63.4499C103.351 53.5499 106.651 42.2999 111.151 29.6999C115.951 16.7999 120.451 7.34989 124.651 1.34988C128.851 1.94989 132.451 2.24989 135.451 2.24989C140.851 2.24989 150.751 1.94989 165.151 1.34988C176.851 0.449889 187.651 -0.000105381 197.551 -0.000105381L197.101 8.99989H206.551C206.251 16.4999 206.101 29.3999 206.101 47.6999L206.551 94.9499C206.851 105.45 207.001 121.35 207.001 142.65V159.3C207.001 170.4 206.701 178.8 206.101 184.5V184.05L204.751 332.55ZM192.601 175.05C193.201 169.05 193.501 160.2 193.501 148.5V130.95C193.501 110.55 193.351 95.2499 193.051 85.0499L192.601 38.6999C192.601 23.3999 192.751 11.9999 193.051 4.49989C183.751 4.49989 173.251 4.94989 161.551 5.8499L133.651 6.74989C129.451 6.74989 127.051 6.59989 126.451 6.29989C123.751 9.89988 120.751 16.4999 117.451 26.0999C114.151 35.3999 111.151 44.5499 108.451 53.5499C106.651 59.5499 104.851 64.9499 103.051 69.7499C101.551 74.5499 100.501 76.7999 99.9008 76.4999C98.1008 76.4999 96.0008 73.7999 93.6008 68.3999C91.2008 62.9999 87.6008 54.1499 82.8008 41.8499C80.1008 34.3499 77.4008 27.2999 74.7008 20.6999C72.0008 13.7999 69.6008 9.29989 67.5008 7.19988H67.0508C63.7508 7.49988 58.5008 7.64988 51.3008 7.64988L35.1008 7.19988H27.9008C18.0008 7.19988 10.6508 7.94988 5.85078 9.44988C4.95078 86.2499 4.50078 164.4 4.50078 243.9C4.50078 275.7 4.65078 296.1 4.95078 305.1C5.55078 313.8 6.45078 318.15 7.65078 318.15L41.4008 318.6C52.8008 318.6 62.5508 318 70.6508 316.8C67.9508 275.7 66.6008 241.05 66.6008 212.85C66.6008 190.35 67.5008 168.15 69.3008 146.25L70.6508 150.75L74.2508 160.2C79.0508 174 83.4008 185.55 87.3008 194.85C91.2008 204.15 94.5008 208.8 97.2008 208.8C98.4008 208.8 100.501 205.2 103.501 198C106.501 190.8 109.501 183 112.501 174.6C119.101 157.2 123.451 146.7 125.551 143.1C128.251 167.4 129.901 205.5 130.501 257.4C130.501 264.3 130.651 274.2 130.951 287.1C131.251 299.7 131.551 310.05 131.851 318.15L160.201 317.7H176.401C179.701 317.7 184.651 318 191.251 318.6L192.601 175.05Z" fill="white"/>
</svg>
