<svg width="216" height="338" viewBox="0 0 216 338" fill="none" xmlns="http://www.w3.org/2000/svg">
<path d="M215.101 334.8C203.101 336.9 193.501 337.95 186.301 337.95C172.501 337.95 159.001 336.45 145.801 333.45C144.601 329.85 143.551 327.6 142.651 326.7C141.751 325.8 140.701 325.2 139.501 324.9C138.301 324.9 137.401 324.75 136.801 324.45C134.401 316.95 131.101 304.8 126.901 288C124.501 278.1 122.401 270.9 120.601 266.4C119.101 261.9 117.451 259.65 115.651 259.65C113.251 259.65 111.151 259.8 109.351 260.1C107.851 260.1 105.751 260.1 103.051 260.1C100.951 265.8 98.8508 274.95 96.7508 287.55C94.3508 299.25 92.2508 308.55 90.4508 315.45C88.6508 322.35 86.1008 328.95 82.8008 335.25C81.9008 335.25 80.5508 335.4 78.7508 335.7C77.2508 336 75.3008 336.15 72.9008 336.15C69.6008 335.85 62.7008 335.7 52.2008 335.7L32.8508 335.25L9.00078 334.8L10.3508 325.8H0.000781005L6.30078 292.5C14.7008 243.9 23.8508 196.05 33.7508 148.95C43.6508 101.55 56.1008 52.9502 71.1008 3.15017C76.5008 2.55018 79.6508 2.25018 80.5508 2.25018C81.7508 2.25018 85.6508 2.40018 92.2508 2.70018C98.8508 3.00017 112.651 2.10018 133.651 0.000186086C134.851 5.10017 135.601 8.40018 135.901 9.90019L142.651 9.00018C145.351 24.3002 154.801 65.7002 171.001 133.2C177.001 157.8 180.151 170.85 180.451 172.35L215.101 334.8ZM130.051 4.95018C116.851 6.15018 103.801 6.75018 90.9008 6.75018H81.4508C77.8508 6.75018 75.6008 6.90018 74.7008 7.20017C60.3008 55.5002 48.3008 102.45 38.7008 148.05C29.4008 193.65 20.1008 242.25 10.8008 293.85C9.90078 299.55 9.00078 304.95 8.10078 310.05C7.20078 314.85 6.45078 318.6 5.85078 321.3L6.75078 321.75H17.5508L53.1008 322.2C56.1008 322.5 59.7008 322.65 63.9008 322.65C67.2008 322.65 69.1508 322.5 69.7508 322.2L71.1008 321.75C73.8008 317.25 75.9008 311.85 77.4008 305.55C78.9008 299.25 80.5508 290.85 82.3508 280.35C85.3508 263.55 88.2008 252.3 90.9008 246.6C94.2008 246.6 96.9008 246.6 99.0008 246.6C101.101 246.3 102.751 246.15 103.951 246.15H109.801L118.801 247.05C121.201 252.45 123.601 259.95 126.001 269.55C128.701 279.15 130.351 285.15 130.951 287.55C133.951 301.65 136.951 312.6 139.951 320.4H140.401C152.101 323.1 164.401 324.45 177.301 324.45C184.801 324.45 192.601 323.7 200.701 322.2V321.75L166.951 164.25L130.051 4.95018ZM87.7508 193.5C91.3508 166.8 93.0008 154.65 92.7008 157.05C95.1008 136.95 97.0508 122.4 98.5508 113.4C100.351 104.1 102.151 99.4502 103.951 99.4502C106.051 99.4502 108.301 106.5 110.701 120.6C113.401 134.7 116.851 159 121.051 193.5L98.5508 193.95L87.7508 193.5ZM109.801 137.7L102.601 189H115.651L109.801 137.7Z" fill="white"/>
</svg>
