<svg width="212" height="339" viewBox="0 0 212 339" fill="none" xmlns="http://www.w3.org/2000/svg">
<path d="M211.499 333C200.099 335.1 185.249 336.15 166.949 336.15C154.349 336.15 145.199 336.3 139.499 336.6L138.149 327.15C134.549 327.15 131.999 327.3 130.499 327.6C128.399 311.7 127.049 288.75 126.449 258.75C125.849 236.85 125.099 220.65 124.199 210.15C117.599 209.55 113.549 209.25 112.049 209.25C103.349 209.25 95.3992 210 88.1992 211.5C87.8992 216 87.7492 223.35 87.7492 233.55L88.1992 260.55C88.4992 266.55 88.6492 275.4 88.6492 287.1C88.6492 306 87.5992 320.7 85.4992 331.2C80.0992 334.5 72.7492 336.15 63.4492 336.15C59.8492 336.15 54.4492 335.85 47.2492 335.25C40.0492 334.65 35.2492 334.35 32.8492 334.35C27.4492 334.35 21.8992 335.85 16.1992 338.85L15.2992 326.25C12.5992 326.85 9.89922 328.05 7.19922 329.85C5.39922 308.55 3.74922 269.55 2.24922 212.85C0.749219 155.85 -0.000780787 103.8 -0.000780787 56.6999C-0.000780787 31.1999 0.149219 13.6499 0.449219 4.0499L7.19922 3.59988C11.3992 4.49989 15.4492 4.94989 19.3492 4.94989C22.3492 4.94989 27.4492 4.64989 34.6492 4.0499C43.0492 3.44989 49.6492 3.14989 54.4492 3.14989C58.0492 3.14989 61.0492 3.89988 63.4492 5.39988C65.8492 6.59989 67.4992 9.14989 68.3992 13.0499C70.1992 13.3499 71.6992 13.6499 72.8992 13.9499C74.3992 14.2499 75.5992 14.5499 76.4992 14.8499C77.6992 25.3499 78.5992 40.6499 79.1992 60.7499C80.3992 89.2499 82.3492 110.7 85.0492 125.1H89.9992C99.2992 125.1 107.699 124.5 115.199 123.3H118.349C120.149 101.7 121.049 80.3999 121.049 59.3999C121.049 35.9999 120.599 18.2999 119.699 6.2999C134.099 2.0999 151.349 -0.000101089 171.449 -0.000101089H177.749C182.549 -0.000101089 186.749 0.299895 190.349 0.899887V9.44988C193.949 9.44988 196.949 9.59988 199.349 9.89988L211.499 333ZM185.849 4.94989C182.549 4.64989 177.749 4.49989 171.449 4.49989C151.949 4.49989 136.199 6.29989 124.199 9.89988C125.099 27.8999 125.549 44.5499 125.549 59.8499C125.549 81.7499 124.499 104.25 122.399 127.35H121.949C111.449 128.85 101.099 129.6 90.8992 129.6C83.6992 129.6 77.8492 129 73.3492 127.8H72.8992C70.1992 113.7 68.2492 92.3999 67.0492 63.8999C66.4492 42.8999 65.2492 24.7499 63.4492 9.44988C59.5492 8.24988 54.1492 7.64988 47.2492 7.64988L35.0992 8.09988L20.2492 8.99989L16.1992 9.44988C12.8992 9.44988 9.59922 8.99988 6.29922 8.09988L4.94922 8.5499C4.64922 18.1499 4.49922 34.1999 4.49922 56.6999C4.49922 104.4 5.09922 155.25 6.29922 209.25C7.79922 263.25 9.44922 300.9 11.2492 322.2C13.3492 321 16.6492 320.4 21.1492 320.4C24.7492 320.4 30.1492 320.7 37.3492 321.3C43.6492 322.2 49.6492 322.65 55.3492 322.65C59.5492 322.65 62.8492 322.5 65.2492 322.2C67.9492 321.9 70.3492 321 72.4492 319.5C73.9492 309 74.6992 296.1 74.6992 280.8C74.6992 269.1 74.5492 260.25 74.2492 254.25L73.7992 228.15C73.7992 218.55 74.2492 208.8 75.1492 198.9C83.2492 196.8 92.3992 195.75 102.599 195.75C109.499 195.75 117.749 196.5 127.349 198L127.799 198.45C129.299 210.75 130.349 230.25 130.949 256.95C130.949 284.55 132.149 306.45 134.549 322.65H134.999C137.399 322.35 141.749 322.2 148.049 322.2H164.249C178.049 322.2 189.299 321.45 197.999 319.95L185.849 4.94989Z" fill="white"/>
</svg>
